<?xml version="1.0" encoding="UTF-8" standalone="no"?>
<svg
   width="64pt"
   height="64pt"
   viewBox="0 0 22.577778 22.577778"
   version="1.1"
   id="svg831"
   inkscape:version="1.1.2 (1:1.1+202202050950+0a00cf5339)"
   sodipodi:docname="10 - Grocery Bag.svg"
   inkscape:export-filename="/media/taufikramadhan/Data/Tr Design Studio/Project Design/TR Creative Design/Icon Design/Project Hiring/Icon Icons/019 - Commerce And Shopping/5 - Send/10 - Grocery Bag.png"
   inkscape:export-xdpi="576"
   inkscape:export-ydpi="576"
   xmlns:inkscape="http://www.inkscape.org/namespaces/inkscape"
   xmlns:sodipodi="http://sodipodi.sourceforge.net/DTD/sodipodi-0.dtd"
   xmlns="http://www.w3.org/2000/svg"
   xmlns:svg="http://www.w3.org/2000/svg"
   xmlns:rdf="http://www.w3.org/1999/02/22-rdf-syntax-ns#"
   xmlns:cc="http://creativecommons.org/ns#"
   xmlns:dc="http://purl.org/dc/elements/1.1/">
  <defs
     id="defs825">
    <pattern
       id="EMFhbasepattern"
       patternUnits="userSpaceOnUse"
       width="6"
       height="6"
       x="0"
       y="0" />
    <pattern
       id="EMFhbasepattern-9"
       patternUnits="userSpaceOnUse"
       width="6"
       height="6"
       x="0"
       y="0" />
    <pattern
       id="EMFhbasepattern-0"
       patternUnits="userSpaceOnUse"
       width="6"
       height="6"
       x="0"
       y="0" />
    <pattern
       id="EMFhbasepattern-7"
       patternUnits="userSpaceOnUse"
       width="6"
       height="6"
       x="0"
       y="0" />
    <pattern
       id="EMFhbasepattern-2"
       patternUnits="userSpaceOnUse"
       width="6"
       height="6"
       x="0"
       y="0" />
    <pattern
       id="EMFhbasepattern-98"
       patternUnits="userSpaceOnUse"
       width="6"
       height="6"
       x="0"
       y="0" />
    <pattern
       id="EMFhbasepattern-6"
       patternUnits="userSpaceOnUse"
       width="6"
       height="6"
       x="0"
       y="0" />
    <pattern
       id="EMFhbasepattern-01"
       patternUnits="userSpaceOnUse"
       width="6"
       height="6"
       x="0"
       y="0" />
    <pattern
       id="EMFhbasepattern-07"
       patternUnits="userSpaceOnUse"
       width="6"
       height="6"
       x="0"
       y="0" />
    <pattern
       id="EMFhbasepattern-8"
       patternUnits="userSpaceOnUse"
       width="6"
       height="6"
       x="0"
       y="0" />
    <pattern
       id="EMFhbasepattern-4"
       patternUnits="userSpaceOnUse"
       width="6"
       height="6"
       x="0"
       y="0" />
    <pattern
       id="EMFhbasepattern-40"
       patternUnits="userSpaceOnUse"
       width="6"
       height="6"
       x="0"
       y="0" />
    <pattern
       id="EMFhbasepattern-08"
       patternUnits="userSpaceOnUse"
       width="6"
       height="6"
       x="0"
       y="0" />
    <pattern
       id="EMFhbasepattern-04"
       patternUnits="userSpaceOnUse"
       width="6"
       height="6"
       x="0"
       y="0" />
    <pattern
       id="EMFhbasepattern-014"
       patternUnits="userSpaceOnUse"
       width="6"
       height="6"
       x="0"
       y="0" />
    <pattern
       id="EMFhbasepattern-27"
       patternUnits="userSpaceOnUse"
       width="6"
       height="6"
       x="0"
       y="0" />
    <pattern
       id="EMFhbasepattern-09"
       patternUnits="userSpaceOnUse"
       width="6"
       height="6"
       x="0"
       y="0" />
    <pattern
       id="EMFhbasepattern-5"
       patternUnits="userSpaceOnUse"
       width="6"
       height="6"
       x="0"
       y="0" />
    <pattern
       id="EMFhbasepattern-018"
       patternUnits="userSpaceOnUse"
       width="6"
       height="6"
       x="0"
       y="0" />
  </defs>
  <sodipodi:namedview
     id="base"
     pagecolor="#ffffff"
     bordercolor="#666666"
     borderopacity="1.0"
     inkscape:pageopacity="0.0"
     inkscape:pageshadow="2"
     inkscape:zoom="4.4249417"
     inkscape:cx="20.678239"
     inkscape:cy="47.684244"
     inkscape:document-units="pt"
     inkscape:current-layer="layer1"
     showgrid="false"
     units="pt"
     inkscape:window-width="1366"
     inkscape:window-height="705"
     inkscape:window-x="0"
     inkscape:window-y="31"
     inkscape:window-maximized="1"
     inkscape:pagecheckerboard="true"
     inkscape:showpageshadow="false"
     inkscape:object-paths="true"
     inkscape:snap-intersection-paths="true"
     inkscape:snap-smooth-nodes="true"
     inkscape:snap-midpoints="true"
     showguides="true"
     inkscape:snap-bbox="true"
     inkscape:bbox-nodes="true"
     inkscape:snap-nodes="false"
     inkscape:snap-global="true"
     inkscape:document-rotation="0">
    <inkscape:grid
       type="xygrid"
       id="grid1378" />
    <sodipodi:guide
       position="0.97013831,21.607643"
       orientation="78.000048,0"
       id="guide1380"
       inkscape:locked="false" />
    <sodipodi:guide
       position="0.97013831,0.97013129"
       orientation="0,78.000005"
       id="guide1382"
       inkscape:locked="false" />
    <sodipodi:guide
       position="21.607639,0.97013129"
       orientation="-78.000048,0"
       id="guide1384"
       inkscape:locked="false" />
    <sodipodi:guide
       position="21.607639,21.607643"
       orientation="0,-78.000005"
       id="guide1386"
       inkscape:locked="false" />
  </sodipodi:namedview>
  <metadata
     id="metadata828">
    <rdf:RDF>
      <cc:Work
         rdf:about="">
        <dc:format>image/svg+xml</dc:format>
        <dc:type
           rdf:resource="http://purl.org/dc/dcmitype/StillImage" />
      </cc:Work>
    </rdf:RDF>
  </metadata>
  <g
     inkscape:label="Icon"
     inkscape:groupmode="layer"
     id="layer1"
     transform="translate(0,-274.42223)">
    <g
       id="g291395"
       style="display:inline;stroke-width:0.800656"
       transform="matrix(1.2489764,0,0,1.2489764,-37.384145,-74.66173)">
      <path
         id="path262731"
         style="color:#000000;fill:#acd47d;fill-opacity:0.917647;stroke-width:3.0261;stroke-linecap:round;stroke-linejoin:round;stroke-miterlimit:1.5;-inkscape-stroke:none"
         d="m 145.80084,8.6796673 c 0.10046,-0.5903793 0.93847,-4.7737047 4.67578,-5.9492187 0.52877,-0.1646756 0.823,-0.7277413 0.65625,-1.2558594 -0.13492,-0.4221198 -0.53156,-0.70509706 -0.97461,-0.69531252 l -0.004,2.02e-5 c -0.0949,0.002296 -0.1889,0.0180791 -0.2793,0.046875 -2.00893,0.63186902 -3.36779,1.88550632 -4.2793,3.19921872 L 145.5488,2.921875 c -0.0222,-0.5524978 -0.48856,-0.9821115 -1.04102,-0.9589844 -0.55017,0.025332 -0.97629,0.4907506 -0.95312,1.0410156 l 0.043,1.0117188 c -0.82403,-1.0452278 -1.92805,-2.0478548 -3.39258,-2.703125 -0.24337,-0.1095649 -0.52043,-0.1173001 -0.76953,-0.021484 -0.24605,0.094784 -0.44471,0.2829099 -0.55274,0.5234375 -0.22657,0.5037445 -0.002,1.0957802 0.50196,1.3222657 1.3055,0.5841156 2.27167,1.598085 2.96289,2.6132812 -0.51985,-0.1024703 -0.88868,-0.1191406 -0.88868,-0.1191406 -0.55026,-0.023169 -1.01568,0.4029555 -1.04101,0.953125 -0.0277,0.5503491 0.39505,1.0193874 0.94531,1.0488281 0,0 0.60134,0.028644 1.23242,0.2421875 0.61057,0.2080648 1.0778,0.5238399 1.22071,0.9667969 z"
         transform="matrix(0.26458334,0,0,0.26458334,0,280.06666)"
         sodipodi:nodetypes="cccccccccccccccccccccc" />
      <path
         style="color:#000000;fill:#d0e2ee;stroke-width:0.800656;stroke-linecap:round;stroke-linejoin:round;stroke-miterlimit:1.5;-inkscape-stroke:none"
         d="m 41.054687,284.46875 a 0.26460996,0.26460996 0 0 0 -0.324218,0.18555 l -1.25,4.66992 a 0.26460996,0.26460996 0 0 0 0.279297,0.33203 l 3.722656,-0.34961 a 0.26460996,0.26460996 0 0 0 0.232422,-0.19531 l 0.453125,-1.72461 0.453125,-1.68945 a 0.26460996,0.26460996 0 0 0 -0.1875,-0.32422 z"
         id="path2085266" />
      <path
         id="path249375"
         style="color:#000000;fill:#a8c2e1;fill-opacity:1;stroke-width:0.800656;stroke-linecap:round;stroke-linejoin:round;stroke-miterlimit:1.5;-inkscape-stroke:none"
         d="m 40.996466,284.45967 a 0.26460996,0.26460996 0 0 0 -0.266133,0.19482 l -0.267169,0.99788 2.911967,0.77928 a 0.26460996,0.26460996 0 0 1 0.187585,0.32401 l -0.453202,1.6893 -0.24133,0.91932 0.614434,-0.0579 a 0.26460996,0.26460996 0 0 0 0.232027,-0.19482 l 0.453202,-1.72496 0.453202,-1.68931 a 0.26460996,0.26460996 0 0 0 -0.187584,-0.32452 l -3.378605,-0.90382 a 0.26460996,0.26460996 0 0 0 -0.05839,-0.009 z" />
      <path
         id="path198635"
         style="fill:#a8c2e1;fill-opacity:1;stroke-width:3.0261;stroke-linecap:round;stroke-linejoin:round;stroke-miterlimit:1.5"
         d="m 154.86523,27.806641 c -0.69903,0.0014 -1.36784,0.297983 -1.83203,0.826171 l -0.64843,0.716797 -0.0586,-0.06641 c -0.37492,-0.428416 -0.84017,-0.72907 -1.33984,-0.904297 l -1.76953,6.609375 a 1.0001006,1.0001006 0 0 0 1.05664,1.25586 l 14.07031,-1.322266 a 1.0001006,1.0001006 0 0 0 0.87695,-0.736328 l 1.39258,-5.298828 c -1.24794,-0.963285 -3.12694,-0.866903 -4.23437,0.398437 l -0.0664,0.07227 -0.0723,-0.07227 c -1.26543,-1.445971 -3.54902,-1.445971 -4.81445,0 l -0.0586,0.06641 -0.66407,-0.716796 c -0.46212,-0.52286 -1.12499,-0.825983 -1.83007,-0.826172 z"
         transform="matrix(0.26458334,0,0,0.26458334,0,280.06666)" />
      <path
         style="color:#000000;fill:#ff7247;stroke-width:0.800656;stroke-linecap:round;stroke-linejoin:round;stroke-miterlimit:1.5;-inkscape-stroke:none"
         d="m 38.298828,282.08398 c -0.583298,0.0251 -0.950009,0.14092 -1.1875,0.31836 -0.237491,0.17745 -0.32908,0.42844 -0.28125,0.63477 l 1.435547,6.19726 a 0.26460996,0.26460996 0 0 0 0.511719,0.0176 l 0.40625,-1.33593 a 0.26460996,0.26460996 0 0 0 0.0078,-0.043 l 0.654297,-4.96875 c 0.02726,-0.2071 -0.08433,-0.44708 -0.335937,-0.60352 -0.251605,-0.15644 -0.627666,-0.24186 -1.210938,-0.2168 z"
         id="path2085272" />
      <path
         id="path236075"
         style="color:#000000;fill:#ff531f;fill-opacity:1;stroke-width:0.800656;stroke-linecap:round;stroke-linejoin:round;stroke-miterlimit:1.5;-inkscape-stroke:none"
         d="m 38.508245,282.07946 c -0.0666,-2.5e-4 -0.136382,0.002 -0.209291,0.005 -0.583297,0.0251 -0.950031,0.14088 -1.187524,0.31832 -0.146764,0.10967 -0.237548,0.24758 -0.274402,0.38551 0.225616,-0.0956 0.526682,-0.15719 0.93276,-0.17467 0.583274,-0.0251 0.959175,0.0601 1.210778,0.21653 0.251608,0.15644 0.363159,0.39648 0.335899,0.60358 l -0.654225,4.96869 a 0.26460996,0.26460996 0 0 1 -0.0078,0.0429 l -0.287319,0.94465 a 0.26460996,0.26460996 0 0 0 0.410311,-0.13746 l 0.406175,-1.33636 a 0.26460996,0.26460996 0 0 0 0.0078,-0.0429 l 0.654225,-4.96869 c 0.02726,-0.2071 -0.08429,-0.44714 -0.335899,-0.60358 -0.220152,-0.13688 -0.535321,-0.21947 -1.001488,-0.22117 z" />
      <path
         style="color:#000000;fill:#dc1c4b;stroke-width:0.800656;stroke-linecap:round;stroke-linejoin:round;stroke-miterlimit:1.5;-inkscape-stroke:none"
         d="m 39.914062,285.03906 c -1.117439,0 -2.029297,0.91183 -2.029296,2.0293 -10e-7,1.11746 0.911857,2.0293 2.029296,2.0293 1.11744,0 2.029298,-0.91184 2.029297,-2.0293 10e-7,-1.11747 -0.911857,-2.0293 -2.029297,-2.0293 z"
         id="path2085260" />
      <path
         id="path229612"
         style="color:#000000;fill:#b01d47;fill-opacity:1;stroke-width:0.800656;stroke-linecap:round;stroke-linejoin:round;stroke-miterlimit:1.5;-inkscape-stroke:none"
         d="m 39.913844,285.03897 c -0.693608,0 -1.307512,0.35147 -1.673799,0.88521 0.326321,-0.2242 0.720405,-0.35605 1.144633,-0.35605 1.117438,0 2.029333,0.91187 2.029333,2.02934 0,0.42405 -0.131506,0.81839 -0.355534,1.14463 0.533466,-0.36632 0.8847,-0.98039 0.8847,-1.6738 0,-1.11747 -0.911894,-2.02933 -2.029333,-2.02933 z" />
      <path
         id="path208780"
         style="color:#000000;fill:#b01d47;fill-opacity:1;stroke-width:3.0261;stroke-linecap:round;stroke-linejoin:round;stroke-miterlimit:1.5;-inkscape-stroke:none"
         d="m 154.86523,27.806641 c -0.69903,0.0014 -1.36784,0.297983 -1.83203,0.826171 l -0.64843,0.716797 -0.0586,-0.06641 c -1.26879,-1.449827 -3.55151,-1.449827 -4.82031,0 l -0.0684,0.07422 -0.0723,-0.07422 c -0.996,-1.1381 -2.62251,-1.380022 -3.88671,-0.726562 0.91517,3.211955 3.8788,5.576171 7.37695,5.576171 3.46912,0 6.41425,-2.324848 7.35547,-5.496093 -0.28698,0.167714 -0.55375,0.384013 -0.78516,0.648437 l -0.0586,0.06641 -0.66407,-0.716796 c -0.46212,-0.52286 -1.12499,-0.825983 -1.83007,-0.826172 z"
         transform="matrix(0.26458334,0,0,0.26458334,0,280.06666)" />
      <path
         style="color:#000000;fill:#d0ad9b;stroke-width:0.800656;stroke-linecap:round;stroke-linejoin:round;stroke-miterlimit:1.5;-inkscape-stroke:none"
         d="m 34.291016,282.35352 c -0.53994,0.14467 -0.908713,0.59122 -1.117188,1.07812 -0.208475,0.4869 -0.274547,1.02778 -0.154297,1.47656 l 1.220703,4.55078 a 0.26460996,0.26460996 0 0 0 0.314453,0.18946 l 3.167969,-0.72461 a 0.26460996,0.26460996 0 0 0 0.197266,-0.32617 c -0.27451,-1.02449 -0.974599,-3.64016 -1.25,-4.66797 -0.120251,-0.44879 -0.449052,-0.88375 -0.873047,-1.20117 -0.423995,-0.31743 -0.965919,-0.51968 -1.505859,-0.375 z"
         id="path2085278" />
      <path
         id="path232999"
         style="color:#000000;fill:#9a605c;fill-opacity:1;stroke-width:0.800656;stroke-linecap:round;stroke-linejoin:round;stroke-miterlimit:1.5;-inkscape-stroke:none"
         d="m 34.644397,282.3058 c -0.117046,8.7e-4 -0.235355,0.0159 -0.353465,0.0475 -0.39321,0.10536 -0.695203,0.37154 -0.911056,0.69608 0.116182,-0.0724 0.243354,-0.12979 0.381889,-0.16691 0.539938,-0.14468 1.081855,0.0577 1.50585,0.37517 0.423995,0.31742 0.753081,0.75217 0.873331,1.20096 0.268359,1.00152 0.929855,3.47299 1.218015,4.54856 l 0.363802,-0.0832 a 0.26460996,0.26460996 0 0 0 0.197403,-0.32659 c -0.27451,-1.02449 -0.974651,-3.64013 -1.250053,-4.66794 -0.12025,-0.44879 -0.449336,-0.88354 -0.873331,-1.20096 -0.331245,-0.24799 -0.734362,-0.42583 -1.152385,-0.42271 z" />
      <path
         id="path208775"
         style="color:#000000;fill:#9a605c;fill-opacity:1;stroke-width:3.0261;stroke-linecap:round;stroke-linejoin:round;stroke-miterlimit:1.5;-inkscape-stroke:none"
         d="m 130.01367,27.783203 c -0.14724,0.0048 -0.30956,0.02959 -0.50586,0.08203 l -2.03515,0.404297 1.93945,7.228516 a 1.0001006,1.0001006 0 0 0 1.1875,0.716797 l 11.97461,-2.738282 a 1.0001006,1.0001006 0 0 0 0.74609,-1.234374 c -0.17286,-0.645131 -0.53981,-2.016013 -0.78711,-2.939454 l -0.0547,0.06055 -0.0742,-0.08008 c -1.26543,-1.445972 -3.54707,-1.445972 -4.8125,0 l -0.0742,0.07422 -0.0664,-0.07422 c -1.26879,-1.449827 -3.55151,-1.449827 -4.82031,0 l -0.0586,0.05859 -0.66602,-0.730469 0.0742,0.0957 c -0.3887,-0.508195 -0.87189,-0.715279 -1.26953,-0.820312 -0.24853,-0.06567 -0.45186,-0.111592 -0.69727,-0.103516 z"
         transform="matrix(0.26458334,0,0,0.26458334,0,280.06666)" />
      <path
         style="color:#000000;fill:#fd913c;stroke-width:0.800656;stroke-linecap:round;stroke-linejoin:round;stroke-miterlimit:1.5;-inkscape-stroke:none"
         d="m 44.156311,288.52709 c 0.0032,-0.0566 -0.01186,-0.11275 -0.04297,-0.16015 l -0.166015,-0.25196 c -0.155424,-0.23689 -0.510595,-0.26211 -0.697266,-0.0488 l -0.304686,0.32812 -0.306639,-0.32812 c -0.182254,-0.20826 -0.516965,-0.20826 -0.699219,0 l -0.306639,0.32812 -0.45703,-0.5 c -0.05037,-0.0572 -0.122977,-0.09 -0.199219,-0.0898 l -6.6e-5,1.9e-4 c -0.07624,-1.6e-4 -0.14885,0.0326 -0.199218,0.0898 l -0.45703,0.5 -0.304686,-0.32812 c -0.182254,-0.20826 -0.518918,-0.20826 -0.701172,0 l -0.304686,0.32812 -0.306639,-0.32812 c -0.182254,-0.20826 -0.516965,-0.20826 -0.699219,0 l -0.306639,0.32812 -0.306639,-0.32812 c -0.182254,-0.20826 -0.516965,-0.20826 -0.699219,0 l -0.306639,0.32812 -0.304686,-0.32812 c -0.182254,-0.20826 -0.518918,-0.20826 -0.701172,0 l -0.306639,0.32812 -0.455077,-0.5 c -0.165527,-0.19284 -0.48127,-0.0642 -0.464843,0.18945 l 0.5,8.46094 c 0.0078,0.1408 0.124614,0.25076 0.265625,0.25 h 4.996093 c 0.293913,0 0.753736,-0.0799 1.236329,-0.20898 0.261668,0.0655 0.492565,0.20898 0.998046,0.20898 h 1.265625 c 0.139548,-2.2e-4 0.254939,-0.10878 0.263672,-0.24805 l 0.269532,-4.08593 c 6.3e-5,-0.003 6.3e-5,-0.007 0,-0.01 0.01553,-0.51895 0.08315,-1.18572 -0.111329,-1.7832 0.204212,-0.61224 0.262719,-1.08593 0.262719,-1.08593 z"
         id="path2085284"
         sodipodi:nodetypes="cccccccccccccccccccccccccccccscsccccccc" />
      <path
         id="path2085290"
         style="color:#000000;fill:#66342d;stroke-width:3.0261;stroke-linecap:round;stroke-linejoin:round;stroke-miterlimit:1.5;-inkscape-stroke:none"
         d="m 138.2168,13.564453 -4.3086,3.818359 c -0.59009,0.523314 -0.75089,1.355315 -0.52539,2.007813 0.22549,0.65246 0.86699,1.20854 1.6543,1.255859 l 5.26367,0.316407 c -0.64229,-2.398872 -1.32964,-4.962125 -1.70508,-6.363282 -0.0934,-0.348788 -0.22252,-0.694196 -0.3789,-1.035156 z"
         transform="matrix(0.26458334,0,0,0.26458334,0,280.06666)" />
      <path
         id="path2085296"
         style="color:#000000;fill:#66342d;stroke-width:3.0261;stroke-linecap:round;stroke-linejoin:round;stroke-miterlimit:1.5;-inkscape-stroke:none"
         d="m 140.08398,20.154297 -4.39062,3.886719 c -0.59022,0.523313 -0.74895,1.355314 -0.52344,2.007812 0.22553,0.652536 0.86691,1.208615 1.6543,1.25586 l 5.25781,0.314453 c -0.70228,-2.622738 -1.26478,-4.726263 -1.99805,-7.464844 z"
         transform="matrix(0.26458334,0,0,0.26458334,0,280.06666)" />
      <path
         style="color:#000000;fill:#d0e2ee;stroke-width:0.800656;stroke-linecap:round;stroke-linejoin:round;stroke-miterlimit:1.5;-inkscape-stroke:none"
         d="m 41.943359,282.11914 a 0.26460996,0.26460996 0 0 0 -0.324218,0.1875 l -0.257813,0.96484 a 0.26460996,0.26460996 0 0 0 0.185547,0.32422 l 2.896484,0.77539 a 0.26460996,0.26460996 0 0 0 0.324219,-0.18554 l 0.259766,-0.9668 a 0.26460996,0.26460996 0 0 0 -0.1875,-0.32422 z"
         id="path2085302" />
      <path
         id="path2085308"
         style="color:#000000;fill:#91a9d9;stroke-width:3.0261;stroke-linecap:round;stroke-linejoin:round;stroke-miterlimit:1.5;-inkscape-stroke:none"
         d="m 156.58398,11.146484 -0.23242,0.869141 -2.34961,5.167969 c -0.0238,0.052 -0.0404,0.105025 -0.0547,0.158203 l -0.26368,0.960937 c 5.06106,1.357417 10.34202,2.779619 14.70313,3.945313 l 0.26758,-1 c 0.0113,-0.04237 0.0159,-0.08543 0.0215,-0.128906 l 0.54688,-5.63086 0.23632,-0.886719 c -4.6452,-1.247174 -8.75025,-2.348439 -12.875,-3.455078 z"
         transform="matrix(0.26458334,0,0,0.26458334,0,280.06666)"
         sodipodi:nodetypes="ccccccccccc" />
      <path
         style="color:#000000;fill:#143441;fill-opacity:1;stroke-width:0.800656;stroke-linecap:round;stroke-linejoin:round;stroke-miterlimit:1.5;-inkscape-stroke:none"
         d="m 42.214844,284.00195 a 0.2645835,0.2645835 0 0 0 -0.324219,0.1875 0.2645835,0.2645835 0 0 0 0.1875,0.32422 l 0.240234,0.0645 a 0.2645835,0.2645835 0 0 0 0.324219,-0.1875 0.2645835,0.2645835 0 0 0 -0.1875,-0.32421 z"
         id="path245450" />
      <path
         id="path2085318"
         style="color:#000000;fill:#50b86b;stroke-width:3.0261;stroke-linecap:round;stroke-linejoin:round;stroke-miterlimit:1.5;-inkscape-stroke:none"
         d="m 147.9707,19.369557 -0.80468,1.866771 c -0.50307,0.857009 0.41627,1.843679 1.30664,1.402344 l 0.99609,-0.501953 0.49414,0.998047 c 0.36637,0.745036 1.42855,0.745036 1.79492,0 l 0.49414,-0.998047 0.9961,0.501953 c 0.89037,0.441335 1.80971,-0.545335 1.30664,-1.402344 L 153.75,19.361745 c 0,0 -1.24838,-0.570556 -2.88965,-0.568422 -1.64127,0.0021 -2.88965,0.576234 -2.88965,0.576234 z"
         transform="matrix(0.26458334,0,0,0.26458334,0,280.06666)"
         sodipodi:nodetypes="cccccccccczc" />
      <path
         style="color:#000000;fill:#143441;stroke-width:0.800656;stroke-linecap:round;stroke-linejoin:round;stroke-miterlimit:1.5;-inkscape-stroke:none"
         d="m 40.09375,284.38867 a 0.2645835,0.2645835 0 0 0 -0.1875,0.0762 c -0.179046,0.17905 -0.225085,0.40124 -0.246094,0.57032 -0.02101,0.16907 -0.0098,0.30859 -0.0098,0.30859 a 0.2645835,0.2645835 0 0 0 0.287109,0.24023 0.2645835,0.2645835 0 0 0 0.240234,-0.28711 c 0,0 -0.0058,-0.0855 0.0078,-0.19531 0.01364,-0.10981 0.05577,-0.22179 0.0957,-0.26172 a 0.2645835,0.2645835 0 0 0 0,-0.375 0.2645835,0.2645835 0 0 0 -0.1875,-0.0762 z"
         id="path247599" />
      <path
         style="color:#000000;fill:#66342d;stroke-width:0.800656;stroke-linecap:round;stroke-linejoin:round;stroke-miterlimit:1.5;-inkscape-stroke:none"
         d="m 35.015625,283.43164 a 0.2645835,0.2645835 0 0 0 -0.1875,0.0762 l -0.25,0.25 a 0.2645835,0.2645835 0 0 0 0,0.375 0.2645835,0.2645835 0 0 0 0.373047,0 l 0.25,-0.25 a 0.2645835,0.2645835 0 0 0 0,-0.375 0.2645835,0.2645835 0 0 0 -0.185547,-0.0762 z"
         id="path2085328" />
      <path
         style="color:#000000;fill:#66342d;stroke-width:0.800656;stroke-linecap:round;stroke-linejoin:round;stroke-miterlimit:1.5;-inkscape-stroke:none"
         d="m 35.015625,285.67969 a 0.2645835,0.2645835 0 0 0 -0.1875,0.0781 l -0.25,0.25 a 0.2645835,0.2645835 0 0 0 0,0.37305 0.2645835,0.2645835 0 0 0 0.373047,0 l 0.25,-0.25 a 0.2645835,0.2645835 0 0 0 0,-0.37305 0.2645835,0.2645835 0 0 0 -0.185547,-0.0781 z"
         id="path2085334" />
      <path
         id="path2085340"
         style="color:#000000;fill:#feae72;stroke-width:3.0261;stroke-linecap:round;stroke-linejoin:round;stroke-miterlimit:1.5;-inkscape-stroke:none"
         d="m 133.03053,63.224767 -0.0598,-1.062653 -1.89062,-31.978515 c -0.0296,-0.511671 -0.44113,-0.918188 -0.95313,-0.941406 l -1e-5,-5e-6 c -0.0812,-0.0034 -0.16255,0.0032 -0.24218,0.01953 l -4.72461,0.943359 c -0.47631,0.09858 -0.81263,0.525567 -0.79688,1.011719 L 125.30078,62.25 c 0.0221,1.046203 1.43292,1.36003 1.89649,0.421875 l 1.26953,-2.539063 2.79882,2.796876 c 0.26515,0.264139 0.48579,0.295079 0.85743,0.295079 z"
         sodipodi:nodetypes="cccssccccccccc"
         transform="matrix(0.26458334,0,0,0.26458334,0,280.06666)" />
      <path
         id="path264496"
         style="color:#000000;fill:#e03400;fill-opacity:1;stroke-width:3.0261;stroke-linecap:round;stroke-linejoin:round;stroke-miterlimit:1.5;-inkscape-stroke:none"
         d="m 150.40625,12.181641 -5.43359,0.160156 a 1.0000006,1.0000006 0 0 0 -0.97461,1.033203 1.0000006,1.0000006 0 0 0 1.02734,0.966797 l 5.11523,-0.150391 z"
         transform="matrix(0.26458334,0,0,0.26458334,0,280.06666)" />
      <path
         id="path264578"
         style="color:#000000;fill:#e03400;fill-opacity:1;stroke-width:3.0261;stroke-linecap:round;stroke-linejoin:round;stroke-miterlimit:1.5;-inkscape-stroke:none"
         d="m 149.9043,15.986328 -3.82422,0.08984 a 1.0000006,1.0000006 0 0 0 -0.97461,1.027344 1.0000006,1.0000006 0 0 0 1.02734,0.974609 l 3.50781,-0.08984 z"
         transform="matrix(0.26458334,0,0,0.26458334,0,280.06666)" />
      <path
         id="path1693319"
         style="color:#000000;fill:#bb570f;stroke-width:3.0261;stroke-linecap:round;stroke-linejoin:round;stroke-miterlimit:1.5;-inkscape-stroke:none"
         d="m 160.39453,60.439453 c -0.19459,3.46e-4 -0.38624,0.05691 -0.55078,0.166016 -1.1437,0.76388 -2.75171,1.382582 -4.31445,1.830078 0.9813,0.245636 1.8488,0.780755 3.72851,0.789062 0.59456,-0.286612 1.16608,-0.604864 1.69336,-0.957031 0.45874,-0.307653 0.58133,-0.930026 0.27344,-1.388672 -0.14782,-0.218456 -0.37595,-0.368785 -0.63477,-0.419922 -0.0646,-0.01266 -0.13044,-0.01965 -0.19531,-0.01953 z"
         transform="matrix(0.26458334,0,0,0.26458334,0,280.06666)" />
      <path
         id="path1693321"
         style="color:#000000;fill:#bb570f;stroke-width:3.0261;stroke-linecap:round;stroke-linejoin:round;stroke-miterlimit:1.5;-inkscape-stroke:none"
         d="m 165.67969,40.066406 c -0.63716,1.73057 -1.6156,3.751408 -3.09571,5.601563 -0.34828,0.43166 -0.27748,1.06448 0.15625,1.410156 0.43047,0.343181 1.0572,0.272726 1.40235,-0.15625 0.8141,-1.017633 1.48776,-2.074217 2.04687,-3.113281 -0.007,-1.237911 -0.1146,-2.528155 -0.50976,-3.742188 z"
         transform="matrix(0.26458334,0,0,0.26458334,0,280.06666)" />
      <path
         id="path176673"
         style="color:#000000;fill:#fd750d;fill-opacity:1;stroke-width:0.800656;stroke-linecap:round;stroke-linejoin:round;stroke-miterlimit:1.5;-inkscape-stroke:none"
         d="m 34.429423,287.80366 c -0.02148,-9e-4 -0.04301,0.001 -0.06408,0.005 l -1.250053,0.2496 c -0.126024,0.0261 -0.215008,0.13906 -0.210841,0.26768 l 0.0062,0.19689 0.925526,-0.185 c 0.02106,-0.004 0.0426,-0.006 0.06408,-0.005 0.135466,0.006 0.244382,0.1137 0.252182,0.24908 l 0.474906,8.03155 0.103352,0.10336 c 0.07015,0.0699 0.128531,0.078 0.226861,0.078 h 0.240295 l -0.01603,-0.28112 -0.500227,-8.46098 c -0.0078,-0.13538 -0.116715,-0.24294 -0.252182,-0.24908 z" />
      <path
         id="path261443"
         style="color:#000000;fill:#a8c2e1;fill-opacity:1;stroke-width:0.800656;stroke-linecap:round;stroke-linejoin:round;stroke-miterlimit:1.5;-inkscape-stroke:none"
         d="m 41.851711,282.11098 a 0.26460996,0.26460996 0 0 0 -0.232545,0.19585 l -0.0987,0.37001 2.790013,0.74672 a 0.26460996,0.26460996 0 0 1 0.187584,0.32453 l -0.159681,0.59531 0.104904,0.0279 a 0.26460996,0.26460996 0 0 0 0.324527,-0.18552 l 0.259417,-0.96687 a 0.26460996,0.26460996 0 0 0 -0.187585,-0.32453 l -2.896465,-0.77514 a 0.26460996,0.26460996 0 0 0 -0.09147,-0.008 z" />
      <path
         id="path251176"
         style="color:#000000;fill:#6788cb;fill-opacity:1;stroke-width:0.800656;stroke-linecap:round;stroke-linejoin:round;stroke-miterlimit:1.5;-inkscape-stroke:none"
         d="m 41.429513,283.01583 -0.0615,0.22996 -0.172082,0.37879 c 0.785917,0.21212 1.559343,0.42538 2.406275,0.655 0.367359,0.0996 0.634914,0.48662 0.598033,0.86546 -0.02259,0.23198 -0.04504,0.46398 -0.06754,0.69594 0.13957,0.0374 0.286091,0.0764 0.419613,0.11214 l 0.0708,-0.26458 c 0.003,-0.0112 0.0042,-0.0226 0.0057,-0.0341 l 0.144695,-1.48983 0.06253,-0.23461 c -1.229042,-0.32998 -2.31517,-0.62136 -3.40651,-0.91416 z" />
      <path
         id="path264406"
         style="color:#000000;fill:#311a12;fill-opacity:1;stroke-width:3.0261;stroke-linecap:round;stroke-linejoin:round;stroke-miterlimit:1.5;-inkscape-stroke:none"
         d="m 138.2168,13.564453 -2.07618,1.839844 c 0.19168,0.39228 0.34696,0.791768 0.45508,1.195312 0.24833,0.926744 0.74302,2.775165 1.12696,4.208985 l 2.57617,0.154297 c -0.64226,-2.398636 -1.32772,-4.962232 -1.70313,-6.363282 -0.0141,-0.05261 -0.0292,-0.105752 -0.0449,-0.158203 -0.0102,-0.03416 -0.0205,-0.06942 -0.0312,-0.103515 -8.1e-4,-0.0025 -0.001,-0.0053 -0.002,-0.0078 -0.027,-0.08421 -0.0571,-0.168186 -0.0879,-0.251953 -0.0635,-0.172571 -0.1347,-0.343192 -0.21289,-0.513672 z"
         transform="matrix(0.26458334,0,0,0.26458334,0,280.06666)" />
      <path
         id="path270575"
         style="color:#000000;fill:#311a12;fill-opacity:1;stroke-width:3.0261;stroke-linecap:round;stroke-linejoin:round;stroke-miterlimit:1.5;-inkscape-stroke:none"
         d="m 140.08398,20.154297 -2.05078,1.814453 c 0.53067,1.981905 0.91786,3.423952 1.47266,5.496094 l 2.57617,0.154297 c -0.17325,-0.647038 -0.33128,-1.24063 -0.49219,-1.841797 -0.56888,-2.124613 -0.95346,-3.560098 -1.50586,-5.623047 z"
         transform="matrix(0.26458334,0,0,0.26458334,0,280.06666)" />
    </g>
  </g>
</svg>
